<svg width="41" height="51" viewBox="0 0 41 51" fill="none" xmlns="http://www.w3.org/2000/svg">
<path d="M5.83647 24.9404C5.83647 26.9937 6.67647 28.0204 8.35647 28.0204C9.14981 28.0204 9.75648 27.7871 10.1765 27.3204C10.6431 26.8071 10.8765 26.0137 10.8765 24.9404V8.1404C10.8765 7.06706 10.6431 6.29706 10.1765 5.83039C9.75648 5.31706 9.14981 5.0604 8.35647 5.0604C6.67647 5.0604 5.83647 6.08706 5.83647 8.1404V24.9404ZM0.936462 8.4904C0.936462 5.9704 1.56646 4.03373 2.82646 2.68039C4.08646 1.32706 5.92981 0.650391 8.35647 0.650391C10.7831 0.650391 12.6265 1.32706 13.8865 2.68039C15.1465 4.03373 15.7765 5.9704 15.7765 8.4904V24.5904C15.7765 27.1104 15.1465 29.0471 13.8865 30.4004C12.6265 31.7537 10.7831 32.4304 8.35647 32.4304C5.92981 32.4304 4.08646 31.7537 2.82646 30.4004C1.56646 29.0471 0.936462 27.1104 0.936462 24.5904V8.4904ZM27.6765 1.00039H32.2265L12.9065 50.0004H8.35647L27.6765 1.00039ZM30.1265 42.8604C30.1265 44.9138 30.9665 45.9404 32.6465 45.9404C33.4398 45.9404 34.0465 45.7071 34.4665 45.2404C34.9332 44.7271 35.1665 43.9338 35.1665 42.8604V26.0604C35.1665 24.9871 34.9332 24.2171 34.4665 23.7504C34.0465 23.2371 33.4398 22.9804 32.6465 22.9804C30.9665 22.9804 30.1265 24.0071 30.1265 26.0604V42.8604ZM25.2265 26.4104C25.2265 23.8904 25.8565 21.9537 27.1165 20.6004C28.3765 19.2471 30.2198 18.5704 32.6465 18.5704C35.0732 18.5704 36.9165 19.2471 38.1765 20.6004C39.4365 21.9537 40.0665 23.8904 40.0665 26.4104V42.5104C40.0665 45.0304 39.4365 46.9671 38.1765 48.3204C36.9165 49.6738 35.0732 50.3504 32.6465 50.3504C30.2198 50.3504 28.3765 49.6738 27.1165 48.3204C25.8565 46.9671 25.2265 45.0304 25.2265 42.5104V26.4104Z" fill="white"/>
</svg>
