<svg width="140" height="86" viewBox="0 0 140 86" fill="none" xmlns="http://www.w3.org/2000/svg">
<path d="M26.3727 38.3191H42.4527V47.6791H26.3727V64.1191H17.0127V47.6791H0.932678V38.3191H17.0127V22.1191H26.3727V38.3191Z" fill="#EA4C14"/>
<path d="M77.6709 21.6391C77.6709 17.8791 77.0309 15.3591 75.7509 14.0791C74.5508 12.7191 72.9109 12.0391 70.8309 12.0391C68.7509 12.0391 67.0708 12.6791 65.7908 13.9591C64.5908 15.1591 63.9908 17.2791 63.9908 20.3191V29.3191H51.5108V21.1591C51.5108 14.3591 53.1508 9.15907 56.4308 5.55906C59.7908 1.87906 64.7108 0.0390625 71.1909 0.0390625C77.6709 0.0390625 82.5509 1.87906 85.8309 5.55906C89.1909 9.15907 90.8709 14.3591 90.8709 21.1591C90.8709 25.5591 90.2309 29.5591 88.9509 33.1591C87.6709 36.6791 86.0309 39.9191 84.0309 42.8791C82.1109 45.7591 79.9909 48.4391 77.6709 50.9191C75.4309 53.3991 73.3109 55.7591 71.3109 57.9991C69.3908 60.2391 67.7908 62.4391 66.5108 64.5991C65.2309 66.6791 64.5908 68.8791 64.5908 71.1991C64.5908 71.9991 64.6308 72.5991 64.7108 72.9991H89.6709V84.9991H51.5108V74.6791C51.5108 70.5991 52.1508 66.9991 53.4308 63.8791C54.7108 60.7591 56.3108 57.9191 58.2308 55.3591C60.2308 52.7191 62.3508 50.2791 64.5908 48.0391C66.8308 45.7191 68.9109 43.2791 70.8309 40.7191C72.8309 38.1591 74.4709 35.3591 75.7509 32.3191C77.0309 29.2791 77.6709 25.7191 77.6709 21.6391Z" fill="#EA4C14"/>
<path d="M112.409 65.6791C112.409 68.7191 113.009 70.8791 114.209 72.1591C115.489 73.3591 117.169 73.9591 119.249 73.9591C121.329 73.9591 122.969 73.3591 124.169 72.1591C125.449 70.8791 126.089 68.7191 126.089 65.6791V20.3191C126.089 17.2791 125.449 15.1591 124.169 13.9591C122.969 12.6791 121.329 12.0391 119.249 12.0391C117.169 12.0391 115.489 12.6791 114.209 13.9591C113.009 15.1591 112.409 17.2791 112.409 20.3191V65.6791ZM99.209 21.1591C99.209 14.3591 100.929 9.15907 104.369 5.55906C107.809 1.87906 112.769 0.0390625 119.249 0.0390625C125.729 0.0390625 130.689 1.87906 134.129 5.55906C137.569 9.15907 139.289 14.3591 139.289 21.1591V64.8391C139.289 71.6391 137.569 76.8791 134.129 80.5591C130.689 84.1591 125.729 85.9591 119.249 85.9591C112.769 85.9591 107.809 84.1591 104.369 80.5591C100.929 76.8791 99.209 71.6391 99.209 64.8391V21.1591Z" fill="#EA4C14"/>
</svg>
